PathFileType  4	(X/Y/Z) C:\Users\antoi\Documents\MyRepositories\mobilecap\ResultsAnalysis
DataRate	CameraRate	NumFrames	NumMarkers	Units	OrigDataRate	OrigDataStartFrame	OrigNumFrames
100.0	100.0	4	51	mm	100.0	844	1349
Frame#	Time	r_knee			r_shank_antsup			r_ankle			r_calc			r_5meta			r_toe			L_knee			L_shank_antsup			L_ankle			L_calc			L_5meta			L_toe			r_sh2			r_sh3			r_sh4			L_sh2			L_sh3			r_thigh1			r_thigh2			r_thigh3			r_thigh4			r_thigh5			L_thigh1			L_thigh2			L_thigh3			L_thigh4			r.ASIS			r.PSIS			L.ASIS			L.PSIS			C7			R_Shoulder			L_Shoulder			R_Sternum			L_Sternum			R_humerus			R_elbow_med			R_elbow_lat			R_forearm			R_wrist_radius			R_wrist_ulna			L_humerus			L_elbow_med			L_elbow_lat			L_forearm			L_wrist_radius			L_wrist_ulna			R_HJC			L_HJC			R_HJC_reg			L_HJC_reg			
		X1	Y1	Z1	X2	Y2	Z2	X3	Y3	Z3	X4	Y4	Z4	X5	Y5	Z5	X6	Y6	Z6	X7	Y7	Z7	X8	Y8	Z8	X9	Y9	Z9	X10	Y10	Z10	X11	Y11	Z11	X12	Y12	Z12	X13	Y13	Z13	X14	Y14	Z14	X15	Y15	Z15	X16	Y16	Z16	X17	Y17	Z17	X18	Y18	Z18	X19	Y19	Z19	X20	Y20	Z20	X21	Y21	Z21	X22	Y22	Z22	X23	Y23	Z23	X24	Y24	Z24	X25	Y25	Z25	X26	Y26	Z26	X27	Y27	Z27	X28	Y28	Z28	X29	Y29	Z29	X30	Y30	Z30	X31	Y31	Z31	X32	Y32	Z32	X33	Y33	Z33	X34	Y34	Z34	X35	Y35	Z35	X36	Y36	Z36	X37	Y37	Z37	X38	Y38	Z38	X39	Y39	Z39	X40	Y40	Z40	X41	Y41	Z41	X42	Y42	Z42	X43	Y43	Z43	X44	Y44	Z44	X45	Y45	Z45	X46	Y46	Z46	X47	Y47	Z47	X48	Y48	Z48	X49	Y49	Z49	X50	Y50	Z50	X51	Y51	Z51	

844	8.43000000	-176.78882	530.93277	-385.41722	-144.74632	403.54282	-388.80498	-291.23070	97.78260	-424.48926	-349.42446	65.09368	-479.49721	-169.52586	35.76775	-353.21143	-122.05426	62.30073	-417.95060	-205.03958	523.15701	-952.16398	-152.81600	414.65406	-947.24594	-290.17988	94.04467	-904.55637	-348.52964	68.05297	-846.45576	-155.55832	33.51798	-951.95378	-117.46248	60.31098	-887.67748	-162.18631	291.80993	-416.27511	-214.91697	404.88843	-356.52936	-227.98308	288.48245	-364.15703	-239.22436	430.06545	-970.03891	-243.90216	306.97136	-974.81368	-215.21653	777.88667	-437.86668	-153.60902	684.73452	-423.81431	-176.14490	649.81649	-370.16511	-298.47782	730.49373	-376.85118	-229.80656	633.99877	-366.85609	-273.58649	780.75320	-918.52371	-192.87468	672.84450	-945.17825	-364.63609	715.01195	-931.63330	-282.22691	606.46929	-956.30978	-286.92248	906.62782	-522.39606	-452.13176	1027.29173	-607.29854	-292.80243	897.68730	-785.76055	-454.45234	1026.55806	-707.44943	-190.65892	1444.51268	-663.55636	-110.99226	1361.64455	-481.90570	-103.07126	1370.52738	-823.13971	-79.08605	1327.21851	-642.90318	-86.40497	1321.94184	-677.40467	-37.33582	1249.20584	-407.93214	28.10603	1028.60199	-432.03093	53.72089	1072.82168	-355.54817	133.35357	1187.68192	-447.47129	201.72352	1254.18918	-511.68160	239.54593	1236.13704	-505.99818	-26.81519	1246.24942	-896.76816	22.05026	1018.31729	-870.65086	60.03194	1068.25814	-932.24997	117.87104	1173.61506	-819.15032	192.96651	1239.54727	-763.33955	231.66845	1218.97648	-782.13145	-396.80059	872.51250	-554.72966	-403.00780	854.68901	-767.28522	-388.87478	865.98838	-557.20911	-392.90533	864.71443	-731.12158	
845	8.44000000	-174.99024	529.86048	-384.10713	-142.71977	402.36823	-388.21962	-291.06465	97.69024	-424.62142	-349.36949	64.98576	-479.78537	-169.48078	35.88652	-353.23520	-122.05928	62.33763	-418.04031	-204.15762	522.23990	-954.14345	-151.89632	413.49942	-948.95225	-290.27716	93.89150	-904.73534	-348.66325	67.97624	-846.38258	-155.71383	33.47019	-952.06097	-117.59212	60.51849	-887.95194	-160.86768	290.85864	-416.34014	-212.83516	403.77397	-355.46410	-226.49058	287.75892	-363.42905	-238.14243	429.42711	-972.11198	-243.58827	305.60527	-975.44047	-217.35767	776.79394	-437.11657	-154.27363	684.33400	-423.49421	-175.88994	649.33783	-369.37103	-299.66462	727.65444	-376.21034	-229.24260	632.48566	-365.80427	-276.01704	778.80284	-917.98105	-194.12120	672.95249	-946.10162	-366.56585	712.05754	-932.62590	-282.32901	605.13509	-958.25455	-290.34938	899.96959	-522.28954	-454.44569	1021.98064	-606.99491	-296.24837	890.89275	-785.79421	-456.73845	1021.22354	-707.15977	-188.41755	1436.09309	-664.01465	-108.82122	1353.05520	-482.49677	-100.89693	1361.29560	-823.02832	-77.69377	1317.92490	-643.20619	-85.05687	1312.57278	-677.59319	-34.99944	1241.51862	-408.31103	31.55598	1021.16250	-432.01387	56.83591	1065.70773	-355.60229	136.01279	1180.69762	-447.56111	204.15668	1247.46789	-511.97394	241.91633	1229.62402	-506.15425	-24.24885	1237.83646	-896.53820	25.98106	1010.35840	-870.46971	63.67419	1060.42382	-931.88507	120.86877	1166.19430	-818.93023	195.49057	1232.55943	-762.98827	234.47453	1212.15971	-781.94960	-400.42221	866.71988	-554.54327	-406.89451	848.93661	-767.09431	-392.66637	860.10991	-557.14419	-396.64939	858.79443	-731.15334	
846	8.45000000	-173.35978	528.88093	-382.92672	-140.78820	401.27213	-387.74785	-290.90479	97.62797	-424.79845	-349.33271	64.88756	-480.04290	-169.41335	36.09074	-353.28618	-122.14080	62.32628	-418.17721	-203.25872	521.38634	-955.91341	-150.96143	412.26884	-950.36642	-290.31049	93.73812	-904.76930	-348.74442	67.91797	-846.35252	-155.81234	33.43360	-952.13343	-117.67437	60.62661	-888.14711	-159.63063	289.94790	-416.37393	-210.87288	402.74977	-354.64410	-224.81990	286.56642	-363.43172	-237.05333	428.59115	-973.85179	-242.97568	304.49073	-976.25235	-219.67175	775.06451	-437.23382	-154.98680	683.85429	-423.46522	-175.69486	648.80636	-368.88716	-300.80879	724.92490	-375.59481	-228.71472	631.07835	-364.97445	-278.67747	776.80703	-917.21031	-195.37389	672.86225	-946.61789	-368.44272	709.06218	-933.53885	-282.40622	603.74986	-960.13886	-293.84467	893.46763	-522.20030	-456.78432	1016.57993	-606.68234	-299.55556	884.32970	-785.55586	-459.01045	1015.91532	-706.75938	-186.10629	1427.57427	-664.50996	-106.64939	1344.39262	-482.99428	-98.75272	1352.03954	-822.83534	-76.26490	1308.60320	-643.45615	-83.81323	1303.19374	-677.74051	-32.61546	1233.69212	-408.71816	34.51602	1013.86951	-432.10732	60.00407	1058.29091	-355.69322	138.62683	1173.60160	-447.77761	206.47863	1240.67002	-512.23333	244.25744	1222.85411	-506.56225	-21.69946	1229.33937	-896.37983	29.83001	1002.30530	-870.30403	67.26470	1052.53062	-931.69887	123.79092	1158.64305	-818.64589	198.01558	1225.36646	-762.60671	237.29861	1205.21102	-781.82453	-404.00624	860.94943	-554.31658	-410.57624	843.28132	-766.87437	-396.33793	854.24329	-557.12604	-400.20633	853.08884	-731.03900	
847	8.46000000	-171.81697	528.02407	-381.70219	-139.03483	400.21631	-387.24325	-290.76898	97.61256	-425.03776	-349.32465	64.81807	-480.30852	-169.44825	36.32750	-353.39952	-122.20648	62.36139	-418.38488	-202.36994	520.51510	-957.35232	-149.75858	411.32546	-951.57451	-290.30727	93.58661	-904.77816	-348.77455	67.89617	-846.36264	-155.90292	33.45959	-952.19318	-117.71250	60.68571	-888.24927	-158.50194	289.07256	-416.34404	-209.03215	401.93421	-353.97918	-223.31912	285.51078	-363.50786	-235.85819	427.69963	-975.32306	-241.81148	304.05867	-977.63620	-222.06248	773.11793	-437.73115	-155.69504	683.29736	-423.53638	-175.56740	648.31646	-368.68532	-301.99791	722.38127	-374.89925	-228.17579	629.88983	-363.89346	-281.70834	774.66242	-916.86777	-196.63341	672.44170	-946.90841	-370.26683	705.87621	-934.10975	-282.51338	602.24910	-961.86332	-297.23801	887.06797	-521.92506	-459.03930	1011.11138	-606.49337	-302.81037	877.68529	-785.22134	-461.41229	1010.60461	-706.28163	-183.77358	1418.97968	-664.94499	-104.52278	1335.61670	-483.46297	-96.65033	1342.70500	-822.67362	-74.85999	1299.22651	-643.70735	-82.46630	1293.76600	-677.82784	-30.25973	1225.77971	-409.13391	36.99964	1006.69593	-432.22478	63.10937	1050.66547	-355.75928	141.19493	1166.42651	-448.06159	208.76124	1233.73591	-512.44601	246.80673	1215.78014	-507.15233	-19.15855	1220.84727	-896.40870	33.60427	994.18245	-870.14930	70.79980	1044.50633	-931.54352	126.72161	1150.98508	-818.43058	200.49145	1218.01178	-762.55406	240.02211	1198.20524	-781.68621	-407.50981	855.23800	-553.95718	-414.19159	837.51972	-766.50724	-399.73333	848.28486	-556.73774	-403.86890	847.40247	-730.61059	
